REM DIRINDEX 1\2\6,1\2\7,1\2\8,1\3\9,1\3\10,1\3\11,1\4\12,1\4\13,1\4\14,1\5\15,1\5\16,1\5\17,1\5\18
REM DIRNAME cjc019,folder01,folder02,folder03,folder04,folder05,folder06,folder07,folder08,folder09,folder10,folder11,folder12,folder13,folder14,folder15,folder16,folder17
TITLE ""
FILE "2Q_t_0159-0175.mp3" MP3
  TRACK 01 AUDIO
    TITLE "12:cjc019_2373"
    INDEX 01 00:00:00
  TRACK 02 AUDIO
    TITLE "0:"
    INDEX 01 00:07:19
  TRACK 03 AUDIO
    TITLE "13:cjc019_2374"
    INDEX 01 00:08:30
  TRACK 04 AUDIO
    TITLE "0:"
    INDEX 01 00:09:45
  TRACK 05 AUDIO
    TITLE "14:cjc019_2375"
    INDEX 01 00:10:27
  TRACK 06 AUDIO
    TITLE "0:"
    INDEX 01 00:11:31
  TRACK 07 AUDIO
    TITLE "13:cjc019_2376"
    INDEX 01 00:12:07
  TRACK 08 AUDIO
    TITLE "0:"
    INDEX 01 00:13:43
  TRACK 09 AUDIO
    TITLE "14:cjc019_2377"
    INDEX 01 00:14:15
  TRACK 10 AUDIO
    TITLE "0:"
    INDEX 01 00:16:38
  TRACK 11 AUDIO
    TITLE "13:cjc019_2378"
    INDEX 01 00:17:12
  TRACK 12 AUDIO
    TITLE "0:"
    INDEX 01 00:18:13
  TRACK 13 AUDIO
    TITLE "14:cjc019_2379"
    INDEX 01 00:18:66
  TRACK 14 AUDIO
    TITLE "0:"
    INDEX 01 00:20:04
  TRACK 15 AUDIO
    TITLE "13:cjc019_2380"
    INDEX 01 00:20:53
  TRACK 16 AUDIO
    TITLE "0:"
    INDEX 01 00:22:09
  TRACK 17 AUDIO
    TITLE "14:cjc019_2381"
    INDEX 01 00:22:68
  TRACK 18 AUDIO
    TITLE "0:"
    INDEX 01 00:24:12
  TRACK 19 AUDIO
    TITLE "13:cjc019_2382"
    INDEX 01 00:24:61
  TRACK 20 AUDIO
    TITLE "0:"
    INDEX 01 00:25:68
  TRACK 21 AUDIO
    TITLE "14:cjc019_2383"
    INDEX 01 00:26:48
  TRACK 22 AUDIO
    TITLE "0:"
    INDEX 01 00:30:18
  TRACK 23 AUDIO
    TITLE "13:cjc019_2384"
    INDEX 01 00:30:73
  TRACK 24 AUDIO
    TITLE "0:"
    INDEX 01 00:32:05
  TRACK 25 AUDIO
    TITLE "14:cjc019_2385"
    INDEX 01 00:32:60
  TRACK 26 AUDIO
    TITLE "0:"
    INDEX 01 00:35:53
  TRACK 27 AUDIO
    TITLE "13:cjc019_2386"
    INDEX 01 00:36:33
  TRACK 28 AUDIO
    TITLE "0:"
    INDEX 01 00:37:44
  TRACK 29 AUDIO
    TITLE "14:cjc019_2387"
    INDEX 01 00:38:24
  TRACK 30 AUDIO
    TITLE "0:"
    INDEX 01 00:40:44
  TRACK 31 AUDIO
    TITLE "13:cjc019_2388"
    INDEX 01 00:41:24
  TRACK 32 AUDIO
    TITLE "0:"
    INDEX 01 00:42:47
  TRACK 33 AUDIO
    TITLE "14:cjc019_2389"
    INDEX 01 00:43:27
  TRACK 34 AUDIO
    TITLE "0:"
    INDEX 01 00:45:47
  TRACK 35 AUDIO
    TITLE "13:cjc019_2390"
    INDEX 01 00:46:25
  TRACK 36 AUDIO
    TITLE "0:"
    INDEX 01 00:47:40
  TRACK 37 AUDIO
    TITLE "14:cjc019_2391"
    INDEX 01 00:48:18
  TRACK 38 AUDIO
    TITLE "0:"
    INDEX 01 00:49:21
  TRACK 39 AUDIO
    TITLE "13:cjc019_2392"
    INDEX 01 00:49:65
  TRACK 40 AUDIO
    TITLE "0:"
    INDEX 01 00:51:20
  TRACK 41 AUDIO
    TITLE "14:cjc019_2393"
    INDEX 01 00:51:73
  TRACK 42 AUDIO
    TITLE "0:"
    INDEX 01 00:53:35
  TRACK 43 AUDIO
    TITLE "13:cjc019_2394"
    INDEX 01 00:54:17
  TRACK 44 AUDIO
    TITLE "0:"
    INDEX 01 00:55:20
  TRACK 45 AUDIO
    TITLE "14:cjc019_2395"
    INDEX 01 00:56:02
  TRACK 46 AUDIO
    TITLE "0:"
    INDEX 01 00:58:07
  TRACK 47 AUDIO
    TITLE "13:cjc019_2396"
    INDEX 01 00:58:60
  TRACK 48 AUDIO
    TITLE "0:"
    INDEX 01 00:59:69
  TRACK 49 AUDIO
    TITLE "14:cjc019_2397"
    INDEX 01 01:00:51
  TRACK 50 AUDIO
    TITLE "0:"
    INDEX 01 01:02:14
  TRACK 51 AUDIO
    TITLE "13:cjc019_2398"
    INDEX 01 01:02:69
  TRACK 52 AUDIO
    TITLE "0:"
    INDEX 01 01:04:19
  TRACK 53 AUDIO
    TITLE "14:cjc019_2399"
    INDEX 01 01:05:03
  TRACK 54 AUDIO
    TITLE "0:"
    INDEX 01 01:06:08
  TRACK 55 AUDIO
    TITLE "13:cjc019_2400"
    INDEX 01 01:06:59
  TRACK 56 AUDIO
    TITLE "0:"
    INDEX 01 01:07:59
  TRACK 57 AUDIO
    TITLE "14:cjc019_2401"
    INDEX 01 01:08:33
  TRACK 58 AUDIO
    TITLE "0:"
    INDEX 01 01:12:11
  TRACK 59 AUDIO
    TITLE "13:cjc019_2402"
    INDEX 01 01:12:66
  TRACK 60 AUDIO
    TITLE "0:"
    INDEX 01 01:14:10
  TRACK 61 AUDIO
    TITLE "14:cjc019_2403"
    INDEX 01 01:14:63
  TRACK 62 AUDIO
    TITLE "0:"
    INDEX 01 01:16:34
  TRACK 63 AUDIO
    TITLE "13:cjc019_2404"
    INDEX 01 01:17:10
  TRACK 64 AUDIO
    TITLE "0:"
    INDEX 01 01:18:31
  TRACK 65 AUDIO
    TITLE "14:cjc019_2405"
    INDEX 01 01:19:17
  TRACK 66 AUDIO
    TITLE "0:"
    INDEX 01 01:21:61
  TRACK 67 AUDIO
    TITLE "13:cjc019_2406"
    INDEX 01 01:22:37
  TRACK 68 AUDIO
    TITLE "0:"
    INDEX 01 01:23:40
  TRACK 69 AUDIO
    TITLE "14:cjc019_2407"
    INDEX 01 01:24:26
  TRACK 70 AUDIO
    TITLE "0:"
    INDEX 01 01:27:10
